<svg xmlns="http://www.w3.org/2000/svg" height="20px" viewBox="0 -960 960 960" width="20px" fill="#e3e3e3"><path d="M720-552h120v72h-72v192q0 40.32-27.77 68.16-27.78 27.84-68 27.84Q632-192 604-219.77q-28-27.78-28-68Q576-328 603.84-356q27.84-28 68.16-28 13 0 25 4t23 9v-181ZM144-192v-92q0-26 12.5-47.5T191-366q55-32 116-49t125-17q32.19 0 64 4.5 31.81 4.5 64 13.5-14 14-24.91 29.43Q524.18-369.15 516-351q-20-5-41.5-7t-42.5-2q-53.93 0-105.96 14Q274-332 227-304q-4.95 2.94-7.98 8.24Q216-290.47 216-284v20h290q2 20 9 37.5t18 34.5H144Zm186-330q-42-42-42-102t42-102q42-42 102-42t102 42q42 42 42 102t-42 102q-42 42-102 42t-102-42Zm153-51.21q21-21.21 21-51T482.79-675q-21.21-21-51-21T381-674.79q-21 21.21-21 51T381.21-573q21.21 21 51 21T483-573.21ZM432-624Zm0 360Z"/></svg>