<?xml version="1.0" encoding="UTF-8" standalone="no"?>
<!-- Created with Inkscape (http://www.inkscape.org/) -->

<svg
   width="210mm"
   height="297mm"
   viewBox="0 0 210 297"
   version="1.1"
   id="svg5"
   xml:space="preserve"
   inkscape:version="1.2.2 (b0a8486541, 2022-12-01)"
   sodipodi:docname="collection.svg"
   xmlns:inkscape="http://www.inkscape.org/namespaces/inkscape"
   xmlns:sodipodi="http://sodipodi.sourceforge.net/DTD/sodipodi-0.dtd"
   xmlns="http://www.w3.org/2000/svg"
   xmlns:svg="http://www.w3.org/2000/svg"><sodipodi:namedview
     id="namedview7"
     pagecolor="#ffffff"
     bordercolor="#000000"
     borderopacity="0.25"
     inkscape:showpageshadow="2"
     inkscape:pageopacity="0.0"
     inkscape:pagecheckerboard="0"
     inkscape:deskcolor="#d1d1d1"
     inkscape:document-units="mm"
     showgrid="false"
     inkscape:zoom="0.9778521"
     inkscape:cx="163.62393"
     inkscape:cy="355.37072"
     inkscape:window-width="1920"
     inkscape:window-height="1011"
     inkscape:window-x="0"
     inkscape:window-y="0"
     inkscape:window-maximized="1"
     inkscape:current-layer="layer1" /><defs
     id="defs2" /><g
     inkscape:label="Layer 1"
     inkscape:groupmode="layer"
     id="layer1"><path
       id="rect111"
       style="fill:#2424b7;fill-opacity:1;stroke-width:0.265;stroke-dasharray:none"
       d="m 79.410492,6.3269158 a 1,1 0 0 0 -1,0 l -7.5,4.3300002 v 12.423 h 4.5 v -6 a 1,1 0 0 1 1,-1 h 5 a 1,1 0 0 1 1,1 v 6 h 4.5 v -12.423 z m -2,-1.732 a 3,3 0 0 1 3,0 l 7.5,4.33 a 2,2 0 0 1 1,1.7320002 v 13.423 a 1,1 0 0 1 -1,1 h -6.5 a 1,1 0 0 1 -1,-1 v -6 h -3 v 6 a 1,1 0 0 1 -1,1 h -6.5 a 1,1 0 0 1 -1,-1 v -13.423 a 2,2 0 0 1 1,-1.7320002 z" /><path
       id="rect111-6"
       style="fill:#2424b7;fill-opacity:1;stroke-width:0.265;stroke-dasharray:none"
       d="m 124.20463,4.601337 c -6.622,-0.263 -12.203,4.892 -12.466,11.514 -0.263,6.623 4.892,12.204 11.515,12.466 6.622,0.263 12.203,-4.892 12.466,-11.514 0.263,-6.622 -4.893,-12.204 -11.515,-12.466 m 5.066,17.579 a 0.717,0.717 0 0 1 -0.977,0.268 14.4,14.4 0 0 0 -5.138,-1.747 14.4,14.4 0 0 0 -5.42,0.263 0.717,0.717 0 0 1 -0.338,-1.392 c 1.95,-0.474 3.955,-0.571 5.958,-0.29 2.003,0.282 3.903,0.928 5.647,1.92 a 0.717,0.717 0 0 1 0.268,0.978 m 1.577,-3.15 a 0.93,0.93 0 0 1 -1.262,0.376 17.7,17.7 0 0 0 -5.972,-1.96 17.7,17.7 0 0 0 -6.281,0.238 0.93,0.93 0 0 1 -1.11,-0.71 0.93,0.93 0 0 1 0.71,-1.11 19.5,19.5 0 0 1 6.94,-0.262 19.5,19.5 0 0 1 6.599,2.165 c 0.452,0.245 0.62,0.81 0.376,1.263 m 1.748,-3.551 a 1.147,1.147 0 0 1 -1.546,0.488 21.4,21.4 0 0 0 -6.918,-2.208 21.4,21.4 0 0 0 -7.259,0.215 1.146,1.146 0 0 1 -0.456,-2.246 23.7,23.7 0 0 1 8.034,-0.24 23.7,23.7 0 0 1 7.657,2.445 c 0.561,0.292 0.78,0.984 0.488,1.546 m 13.612,-0.036 -0.832,-0.247 c -1.67,-0.495 -2.14,-0.681 -2.14,-1.353 0,-0.637 0.708,-1.327 2.264,-1.327 1.539,0 2.839,0.752 3.51,1.31 0.116,0.096 0.24,0.052 0.24,-0.098 v -2.202 c 0,-0.097 -0.027,-0.15 -0.098,-0.203 -0.83,-0.62 -2.272,-1.07 -3.723,-1.07 -2.953,0 -4.722,1.68 -4.722,3.59 0,2.157 1.371,2.91 3.626,3.546 l 0.973,0.274 c 1.689,0.478 1.998,0.902 1.998,1.556 0,1.097 -0.831,1.433 -2.07,1.433 -1.556,0 -3.457,-0.911 -4.35,-2.025 -0.08,-0.098 -0.177,-0.053 -0.177,0.062 v 2.423 c 0,0.097 0.01,0.141 0.08,0.22 0.743,0.814 2.52,1.53 4.59,1.53 2.546,0 4.456,-1.485 4.456,-3.784 0,-1.787 -1.052,-2.865 -3.625,-3.635 m 10.107,-1.76 c -1.68,0 -2.653,1.026 -3.219,2.052 v -1.768 c 0,-0.08 -0.044,-0.124 -0.124,-0.124 h -2.22 c -0.079,0 -0.123,0.044 -0.123,0.124 v 11.344 c 0,0.08 0.044,0.124 0.124,0.124 h 2.22 c 0.079,0 0.123,-0.044 0.123,-0.124 v -4.536 c 0.566,1.025 1.521,2.034 3.237,2.034 2.264,0 3.89,-1.955 3.89,-4.581 0,-2.626 -1.644,-4.545 -3.908,-4.545 m -0.654,6.986 c -1.185,0 -2.211,-1.167 -2.618,-2.458 0.407,-1.362 1.344,-2.405 2.618,-2.405 1.211,0 2.051,0.92 2.051,2.423 0,1.503 -0.84,2.44 -2.051,2.44 m 40.63299,-6.826 h -2.264 c -0.08,0 -0.115,0.017 -0.15,0.097 l -2.282,5.483 -2.29,-5.483 c -0.035,-0.08 -0.07,-0.097 -0.15,-0.097 h -3.661 v -0.584 c 0,-0.955 0.645,-1.397 1.476,-1.397 0.496,0 1.035,0.256 1.415,0.486 0.089,0.053 0.15,-0.008 0.115,-0.088 l -0.796,-1.901 a 0.26,0.26 0 0 0 -0.124,-0.133 c -0.389,-0.203 -1.025,-0.38 -1.644,-0.38 -1.875,0 -2.954,1.432 -2.954,3.254 v 0.743 h -1.50299 c -0.08,0 -0.124,0.044 -0.124,0.124 v 1.768 c 0,0.08 0.044,0.124 0.124,0.124 h 1.50299 v 6.668 c 0,0.08 0.044,0.123 0.124,0.123 h 2.264 c 0.08,0 0.124,-0.044 0.124,-0.123 v -6.668 h 1.936 l 2.812,6.11 -1.512,3.325 c -0.044,0.098 0.009,0.142 0.097,0.142 h 2.414 c 0.08,0 0.116,-0.018 0.15,-0.097 l 4.997,-11.355 c 0.035,-0.08 -0.009,-0.141 -0.097,-0.141 m -30.55199,-0.212 c -2.865,0 -4.837,2.025 -4.837,4.616 0,2.573 1.971,4.616 4.837,4.616 2.856,0 4.846,-2.043 4.846,-4.616 0,-2.591 -1.99,-4.616 -4.846,-4.616 m 0.008,7.065 c -1.37,0 -2.343,-1.043 -2.343,-2.45 0,-1.405 0.973,-2.449 2.343,-2.449 1.362,0 2.335,1.043 2.335,2.45 0,1.406 -0.973,2.45 -2.335,2.45 m 33.54099,-6.334 a 1.24,1.24 0 0 0 -0.483,-0.471 1.4,1.4 0 0 0 -0.693,-0.17 q -0.384,0 -0.693,0.17 a 1.24,1.24 0 0 0 -0.484,0.471 q -0.174,0.302 -0.174,0.681 0,0.375 0.174,0.677 0.175,0.3 0.484,0.471 0.309,0.171 0.693,0.17 0.384,-0.001 0.693,-0.17 0.309,-0.169 0.483,-0.471 0.174,-0.302 0.175,-0.676 0,-0.38 -0.175,-0.682 m -0.211,1.247 a 1,1 0 0 1 -0.394,0.39 1.15,1.15 0 0 1 -0.571,0.14 1.16,1.16 0 0 1 -0.576,-0.14 1,1 0 0 1 -0.391,-0.39 1.14,1.14 0 0 1 -0.14,-0.566 q 0,-0.316 0.14,-0.562 0.14,-0.246 0.391,-0.388 0.251,-0.142 0.576,-0.14 0.32,0 0.57,0.14 0.253,0.141 0.395,0.39 0.142,0.249 0.142,0.565 0,0.312 -0.142,0.56 m -19.83499,-5.78 c -0.85,0 -1.468,0.6 -1.468,1.396 0,0.796 0.619,1.397 1.468,1.397 0.866,0 1.485,-0.6 1.485,-1.397 0,-0.796 -0.619,-1.397 -1.485,-1.397 m 19.32899,5.19 a 0.31,0.31 0 0 0 0.134,-0.262 q 0,-0.168 -0.132,-0.266 -0.132,-0.099 -0.381,-0.099 h -0.588 v 1.229 h 0.284 v -0.489 h 0.154 l 0.374,0.489 h 0.35 l -0.41,-0.518 a 0.5,0.5 0 0 0 0.215,-0.084 m -0.424,-0.109 h -0.26 v -0.3 h 0.27 q 0.12,0 0.184,0.036 a 0.12,0.12 0 0 1 0.065,0.116 0.12,0.12 0 0 1 -0.067,0.111 0.4,0.4 0 0 1 -0.192,0.037 m -17.76499,-1.066 h -2.263 c -0.08,0 -0.124,0.044 -0.124,0.124 v 8.56 c 0,0.08 0.044,0.123 0.124,0.123 h 2.263 c 0.08,0 0.124,-0.044 0.124,-0.123 v -8.56 c 0,-0.08 -0.044,-0.124 -0.124,-0.124 m -3.333,6.605 a 2.1,2.1 0 0 1 -1.053,0.257 c -0.725,0 -1.185,-0.425 -1.185,-1.362 v -3.484 h 2.211 c 0.08,0 0.124,-0.044 0.124,-0.124 v -1.768 c 0,-0.08 -0.044,-0.124 -0.124,-0.124 h -2.21 v -2.308 c 0,-0.097 -0.063,-0.15 -0.15,-0.08 l -3.954,3.113 c -0.053,0.044 -0.07,0.088 -0.07,0.16 v 1.007 c 0,0.08 0.044,0.124 0.123,0.124 h 1.539 v 3.855 c 0,2.087 1.203,3.06 2.918,3.06 0.743,0 1.46,-0.194 1.884,-0.442 0.062,-0.035 0.07,-0.07 0.07,-0.133 v -1.68 c 0,-0.088 -0.044,-0.115 -0.123,-0.07" /><path
       id="rect111-6-7"
       style="fill:#2424b7;fill-opacity:1;stroke-width:0.265;stroke-dasharray:none"
       d="m 17.376671,43.640989 c -5.18085,0 -9.4070201,4.13994 -9.4070201,9.27897 0,5.1391 4.2261701,9.279 9.4070201,9.279 2.234,0 4.2905,-0.7698 5.9072,-2.0575 l 4.3527,4.3526 c 0.3905,0.3906 1.0237,0.3906 1.4142,0 0.3905,-0.3905 0.3905,-1.0237 0,-1.4142 l -4.3437,-4.3437 c 1.2982,-1.5892 2.0766,-3.6107 2.0766,-5.8162 0,-5.13903 -4.2262,-9.27897 -9.407,-9.27897 z m -7.4070201,9.27897 c 0,-4.00564 3.3017001,-7.27897 7.4070201,-7.27897 4.1053,0 7.407,3.27333 7.407,7.27897 0,4.0057 -3.3017,7.279 -7.407,7.279 -4.10532,0 -7.4070201,-3.2733 -7.4070201,-7.279 z" /><path
       id="rect111-6-7-5"
       style="fill:#2424b7;fill-opacity:1;stroke-width:0.265;stroke-dasharray:none"
       d="m 59.409988,47.740107 a 0.75,0.75 0 1 0 -1.06,1.06 l 1.018,1.018 h -1.949 a 3.75,3.75 0 0 0 -2.873,1.34 l -6.173,7.356 a 2.25,2.25 0 0 1 -1.724,0.804 h -0.39 v 1.5 h 0.391 a 3.75,3.75 0 0 0 2.873,-1.34 l 6.173,-7.356 a 2.25,2.25 0 0 1 1.724,-0.804 h 1.947 l -1.017,1.018 a 0.75,0.75 0 0 0 1.06,1.06 l 2.829,-2.828 z m -12.76,2.578 h -0.391 v -1.5 h 0.391 c 1.109,0 2.16,0.49 2.873,1.34 l 1.626,1.937 -0.979,1.167 -1.796,-2.14 a 2.25,2.25 0 0 0 -1.725,-0.804 z" /><path
       id="rect111-6-7-5-3"
       style="fill:#2424b7;fill-opacity:1;stroke-width:0.265;stroke-dasharray:none"
       d="m 54.442826,57.645744 0.98,-1.167 0.957,1.14 a 2.25,2.25 0 0 0 1.724,0.804 h 1.947 l -1.017,-1.018 a 0.75,0.75 0 1 1 1.06,-1.06 l 2.829,2.828 -2.829,2.828 a 0.75,0.75 0 1 1 -1.06,-1.06 l 1.018,-1.018 h -1.949 a 3.75,3.75 0 0 1 -2.873,-1.34 l -0.787,-0.938 z" /><path
       id="rect111-6-7-5-3-5"
       style="fill:#2424b7;fill-opacity:1;stroke-width:0.265;stroke-dasharray:none"
       d="m 87.091899,48.881387 a 0.7,0.7 0 0 1 0.7,0.7 v 5.15 l 9.95,-5.744 a 0.7,0.7 0 0 1 1.05,0.606 v 12.575 a 0.7,0.7 0 0 1 -1.05,0.607 l -9.95,-5.745 v 5.151 a 0.7,0.7 0 0 1 -0.7,0.7 h -1.6 a 0.7,0.7 0 0 1 -0.7,-0.7 v -12.6 a 0.7,0.7 0 0 1 0.7,-0.7 z" /><path
       id="rect111-6-7-5-3-5-6"
       style="fill:#2424b7;fill-opacity:1;stroke-width:0.265;stroke-dasharray:none"
       d="m 121.15233,63.275586 a 0.7,0.7 0 0 1 -0.7,-0.7 v -5.15 l -9.95,5.744 a 0.7,0.7 0 0 1 -1.05,-0.606 v -12.575 a 0.7,0.7 0 0 1 1.05,-0.607 l 9.95,5.745 v -5.151 a 0.7,0.7 0 0 1 0.7,-0.7 h 1.6 a 0.7,0.7 0 0 1 0.7,0.7 v 12.6 a 0.7,0.7 0 0 1 -0.7,0.7 z" /><path
       id="rect111-6-7-5-3-5-6-2"
       style="fill:#2424b7;fill-opacity:1;stroke-width:0.265;stroke-dasharray:none"
       d="m 144.6994,49.088114 a 0.7,0.7 0 0 1 1.05,-0.607 l 10.89,6.288 a 0.7,0.7 0 0 1 0,1.212 l -10.89,6.288 a 0.7,0.7 0 0 1 -1.05,-0.606 z" /><path
       id="rect111-6-7-5-3-5-6-2-9"
       style="fill:#2424b7;fill-opacity:1;stroke-width:0.265;stroke-dasharray:none"
       d="m 19.332496,85.892239 a 0.75,0.75 0 0 0 -1.125,-0.65 l -6.925,4 a 3.64,3.64 0 0 0 -1.3300002,4.967 3.64,3.64 0 0 0 1.3300002,1.332 l 6.925,4 a 0.75,0.75 0 0 0 1.125,-0.649 v -1.906 a 4.7,4.7 0 0 1 -1.5,-0.694 v 1.3 l -5.799,-3.348 a 2.14,2.14 0 0 1 -0.781,-2.92 c 0.187,-0.324 0.456,-0.594 0.78,-0.782 l 5.8,-3.35 v 1.3 c 0.45,-0.313 0.956,-0.55 1.5,-0.694 z" /><path
       id="rect111-6-7-5-3-5-6-2-9-1"
       style="fill:#2424b7;fill-opacity:1;stroke-width:0.265;stroke-dasharray:none"
       d="m 46.418848,84.60702 a 0.75,0.75 0 0 1 0.375,0.65 v 13 a 0.75,0.75 0 0 1 -1.125,0.65 l -6.925,-4 a 3.64,3.64 0 0 1 -1.33,-4.967 3.64,3.64 0 0 1 1.33,-1.332 l 6.925,-4 a 0.75,0.75 0 0 1 0.75,0 z m -6.924,5.3 a 2.14,2.14 0 0 0 0,3.7 l 5.8,3.35 v -10.4 z m 8.683,4.29 v -4.88 a 2.75,2.75 0 0 1 0,4.88" /><path
       id="rect111-6-7-5-3-5-6-2-9-1-2"
       style="fill:#2424b7;fill-opacity:1;stroke-width:0.265;stroke-dasharray:none"
       d="m 70.951427,84.270913 a 0.75,0.75 0 0 1 0.375,0.65 v 13 a 0.75,0.75 0 0 1 -1.125,0.65 l -6.925,-4 a 3.64,3.64 0 0 1 -1.33,-4.967 3.64,3.64 0 0 1 1.33,-1.332 l 6.925,-4 a 0.75,0.75 0 0 1 0.75,0 z m -6.924,5.3 a 2.14,2.14 0 0 0 0,3.7 l 5.8,3.35 v -10.4 z m 8.683,6.087 a 4.502,4.502 0 0 0 0,-8.474 v 1.65 a 3,3 0 0 1 0,5.175 z" /><path
       id="rect111-6-7-5-3-5-6-2-9-1-2-7"
       style="fill:#2424b7;fill-opacity:1;stroke-width:0.265;stroke-dasharray:none"
       d="m 89.953305,98.238765 a 5.752,5.752 0 0 0 0,-11.228 v 1.55 a 4.252,4.252 0 0 1 0,8.127 z" /><path
       id="rect111-6-7-5-3-5-6-2-9-1-2-7-36"
       style="fill:#2424b7;fill-opacity:1;stroke-width:0.265;stroke-dasharray:none"
       d="m 125.07772,88.438553 a 2.831,2.831 0 0 0 -4.797,1.55 l 3.247,3.247 a 2.831,2.831 0 0 0 1.55,-4.797 m -2.926,5.544 -2.619,-2.62 -3.141,3.577 -2.675,3.045 a 1.287,1.287 0 0 0 1.816,1.816 l 3.06,-2.688 3.56,-3.129 z m -3.38,-4.024 a 4.331,4.331 0 1 1 4.786,4.786 l -3.974,3.493 -3.06,2.688997 a 2.787,2.787 0 0 1 -3.933,-3.932997 l 2.676,-3.045 z" /><path
       id="rect111-6-7-5-3-5-6-2-9-1-2-7-36-0"
       style="fill:#2424b7;fill-opacity:1;stroke-width:0.265;stroke-dasharray:none"
       d="m 160.97784,99.934406 h -14 v -1.499998 h 14 z m 0,-4.499998 h -14 v -1.5 h 14 z m -14,-7 a 2.5,2.5 0 0 1 2.5,-2.5 h 9 a 2.5,2.5 0 0 1 0,5 h -9 a 2.5,2.5 0 0 1 -2.5,-2.5 m 2.5,-1 a 1,1 0 0 0 0,2 h 9 a 1,1 0 1 0 0,-2 z" /><path
       id="rect111-6-7-5-3-5-6-2-9-1-2-7-36-0-6"
       style="fill:#2424b7;fill-opacity:1;stroke-width:0.265;stroke-dasharray:none"
       d="m 185.7377,102.39936 a 1,1 0 0 0 1,-1 V 87.399364 a 1,1 0 0 0 -1,-1 h -14 a 1,1 0 0 0 -1,1 v 13.999996 a 1,1 0 0 0 1,1 z m -8.5,-1.5 V 87.899364 h 8 v 12.999996 z m -1.5,0 h -3.5 V 87.899364 h 3.5 z" /><path
       id="rect111-6-7-5-3-5-6-2-9-1-2-7-36-0-2"
       style="fill:#2424b7;fill-opacity:1;stroke-width:0.265;stroke-dasharray:none"
       d="m 180.54997,96.714805 a 0.75,0.75 0 1 1 -1.06,-1.06 l 1.47,-1.47 -1.47,-1.47 a 0.75,0.75 0 0 1 1.06,-1.06 l 2,2 a 0.75,0.75 0 0 1 0,1.06 z" /><path
       id="rect111-6-7-5-3-5-6-2-9-1-2-7-36-0-2-1"
       style="fill:#2424b7;fill-opacity:1;stroke-width:0.265;stroke-dasharray:none"
       d="m 195.05098,91.675588 a 0.75,0.75 0 1 1 1.06,1.06 l -1.47,1.47 1.47,1.47 a 0.75,0.75 0 0 1 -1.06,1.06 l -2,-2 a 0.75,0.75 0 0 1 0,-1.06 z" /><path
       id="rect111-6-7-5-3-5-6-2-9-1-2-7-3"
       style="fill:#2424b7;fill-opacity:1;stroke-width:0.265;stroke-dasharray:none"
       d="m 13.82121,122.69018 a 1,1 0 0 1 0.98,-0.804 h 2.36 a 1,1 0 0 1 0.98,0.804 l 0.331,1.652 a 6.993,6.993 0 0 1 1.929,1.115 l 1.598,-0.54 a 1,1 0 0 1 1.186,0.447 l 1.18,2.044 a 1,1 0 0 1 -0.205,1.251 l -1.267,1.113 a 7.047,7.047 0 0 1 0,2.228 l 1.267,1.113 a 1,1 0 0 1 0.206,1.25 l -1.18,2.045 a 1,1 0 0 1 -1.187,0.447 l -1.598,-0.54 a 6.993,6.993 0 0 1 -1.929,1.115 l -0.33,1.652 a 1,1 0 0 1 -0.98,0.804 h -2.361 a 1,1 0 0 1 -0.98,-0.804 l -0.331,-1.652 a 6.993,6.993 0 0 1 -1.929,-1.115 l -1.5980002,0.54 a 1,1 0 0 1 -1.186,-0.447 l -1.18,-2.044 a 1,1 0 0 1 0.205,-1.251 l 1.267,-1.114 a 7.05,7.05 0 0 1 0,-2.227 l -1.267,-1.113 a 1,1 0 0 1 -0.206,-1.25 l 1.18,-2.045 a 1,1 0 0 1 1.187,-0.447 l 1.5980002,0.54 a 6.992,6.992 0 0 1 1.93,-1.115 z m 2.16,11.196 a 3,3 0 1 0 0,-6 3,3 0 0 0 0,6 z" /><path
       id="rect111-6-7-5-3-5-6-2-9-1-2-7-3-6"
       style="fill:#2424b7;fill-opacity:1;stroke-width:0.265;stroke-dasharray:none"
       d="m 44.49877,129.08416 c 0.966,0 1.453,-0.487 1.453,-1.49 v -3.4 c 0,-1.004 -0.487,-1.483 -1.453,-1.483 h -3.468 c -0.965,0 -1.452,0.479 -1.452,1.483 v 3.4 c 0,1.003 0.487,1.49 1.452,1.49 z m 7.628,0 c 0.965,0 1.452,-0.487 1.452,-1.49 v -3.4 c 0,-1.004 -0.487,-1.483 -1.452,-1.483 h -3.46 c -0.974,0 -1.46,0.479 -1.46,1.483 v 3.4 c 0,1.003 0.486,1.49 1.46,1.49 z m -7.65,-1.073 h -3.43 c -0.266,0 -0.396,-0.137 -0.396,-0.418 v -3.4 c 0,-0.273 0.13,-0.41 0.396,-0.41 h 3.43 c 0.265,0 0.402,0.137 0.402,0.41 v 3.4 c 0,0.281 -0.137,0.418 -0.403,0.418 z m 7.634,0 h -3.43 c -0.273,0 -0.402,-0.137 -0.402,-0.418 v -3.4 c 0,-0.273 0.129,-0.41 0.403,-0.41 h 3.43 c 0.265,0 0.395,0.137 0.395,0.41 v 3.4 c 0,0.281 -0.13,0.418 -0.396,0.418 z m -7.612,8.7 c 0.966,0 1.453,-0.48 1.453,-1.483 v -3.407 c 0,-0.996 -0.487,-1.483 -1.453,-1.483 h -3.468 c -0.965,0 -1.452,0.487 -1.452,1.483 v 3.407 c 0,1.004 0.487,1.483 1.452,1.483 z m 7.628,0 c 0.965,0 1.452,-0.48 1.452,-1.483 v -3.407 c 0,-0.996 -0.487,-1.483 -1.452,-1.483 h -3.46 c -0.974,0 -1.46,0.487 -1.46,1.483 v 3.407 c 0,1.004 0.486,1.483 1.46,1.483 z m -7.65,-1.072 h -3.43 c -0.266,0 -0.396,-0.137 -0.396,-0.41 v -3.4 c 0,-0.282 0.13,-0.418 0.396,-0.418 h 3.43 c 0.265,0 0.402,0.136 0.402,0.418 v 3.4 c 0,0.273 -0.137,0.41 -0.403,0.41 z m 7.634,0 h -3.43 c -0.273,0 -0.402,-0.137 -0.402,-0.41 v -3.4 c 0,-0.282 0.129,-0.418 0.403,-0.418 h 3.43 c 0.265,0 0.395,0.136 0.395,0.418 v 3.4 c 0,0.273 -0.13,0.41 -0.396,0.41 z" /><path
       id="rect111-6-7-5-3-5-6-2-9-1-2-7-3-6-7"
       style="fill:#2424b7;fill-opacity:1;stroke-width:0.265;stroke-dasharray:none"
       d="m 78.477139,137.90919 a 1.94,1.94 0 0 1 -1.43,-0.502 c -0.334,-0.335 -0.502,-0.794 -0.502,-1.393 v -7.142 c 0,-0.362 0.062,-0.688 0.177,-0.953 0.123,-0.264 0.326,-0.529 0.6,-0.75 l 6.145,-5.157 c 0.176,-0.141 0.344,-0.247 0.52,-0.318 0.176,-0.07 0.362,-0.105 0.564,-0.105 0.194,0 0.388,0.035 0.565,0.105 0.176,0.07 0.352,0.177 0.52,0.318 l 6.146,5.158 c 0.273,0.23 0.467,0.476 0.59,0.75 0.124,0.264 0.177,0.59 0.177,0.96 v 7.134 c 0,0.59 -0.159,1.058 -0.503,1.393 -0.335,0.335 -0.811,0.503 -1.428,0.503 h -12.142 z m 12.14,-1.172 c 0.221,0 0.406,-0.07 0.547,-0.212 a 0.688,0.688 0 0 0 0.22,-0.511 v -7.142 c 0,-0.177 -0.026,-0.344 -0.087,-0.459 a 0.97,0.97 0 0 0 -0.265,-0.353 l -6.154,-5.149 a 0.756,0.756 0 0 0 -0.177,-0.115 0.37,0.37 0 0 0 -0.15,-0.035 0.37,0.37 0 0 0 -0.158,0.035 l -0.177,0.115 -6.145,5.15 a 0.982,0.982 0 0 0 -0.274,0.352 1.13,1.13 0 0 0 -0.088,0.468 v 7.133 c 0,0.203 0.08,0.379 0.23,0.511 a 0.744,0.744 0 0 0 0.546,0.212 h 12.133 z m -8.323,-4.7 c 0,-0.176 0.062,-0.326 0.177,-0.432 a 0.6,0.6 0 0 1 0.423,-0.159 h 3.315 c 0.176,0 0.326,0.053 0.432,0.16 0.106,0.107 0.159,0.255 0.159,0.431 v 4.973 h -4.497 v -4.973 z" /><path
       id="rect111-6-7-5-3-5-6-2-9-1-2-7-3-6-7-5"
       style="fill:#2424b7;fill-opacity:1;stroke-width:0.265;stroke-dasharray:none"
       d="m 116.27851,133.46037 c 1.66,0 3,-1.34 3,-3 v -6 c 0,-1.66 -1.34,-3 -3,-3 -1.66,0 -3,1.34 -3,3 v 6 c 0,1.66 1.34,3 3,3 z m -1,-9 c 0,-0.55 0.45,-1 1,-1 0.55,0 1,0.45 1,1 v 6 c 0,0.55 -0.45,1 -1,1 -0.55,0 -1,-0.45 -1,-1 z m 6,6 c 0,2.76 -2.24,5 -5,5 -2.76,0 -5,-2.24 -5,-5 h -2 c 0,3.53 2.61,6.43 6,6.92 v 3.08 h 2 v -3.08 c 3.39,-0.49 6,-3.39 6,-6.92 z" /><path
       id="rect111-6-7-5-3-5-6-2-9-1-2-7-3-6-7-5-3"
       style="fill:#2424b7;fill-opacity:1;stroke-width:0.265;stroke-dasharray:none"
       d="m 144.47444,123.05226 0.01,10.55 c -0.59,-0.34 -1.27,-0.55 -2,-0.55 -2.22,0 -4.01,1.79 -4.01,4 0,2.21 1.79,4 4.01,4 2.22,0 3.99,-1.79 3.99,-4 v -10 h 4 v -4 z m -1.99,16 c -1.1,0 -2,-0.9 -2,-2 0,-1.1 0.9,-2 2,-2 1.1,0 2,0.9 2,2 0,1.1 -0.9,2 -2,2 z" /><path
       id="rect111-6-7-5-3-5-6-2-9-1-2-7-3-6-7-5-3-5"
       style="fill:#2424b7;fill-opacity:1;stroke-width:0.265;stroke-dasharray:none"
       d="m 168.80087,127.27936 h -2 v 14 c 0,1.1 0.9,2 2,2 h 14 v -2 h -14 z m 16,-4 h -12 c -1.1,0 -2,0.9 -2,2 v 12 c 0,1.1 0.9,2 2,2 h 12 c 1.1,0 2,-0.9 2,-2 v -12 c 0,-1.1 -0.9,-2 -2,-2 z m 0,14 h -12 v -12 h 12 z m -8,-10.5 v 9 l 6,-4.5 z" /><path
       id="rect111-6-7-5-3-5-6-2-9-1-2-7-3-6-7-5-3-5-6"
       style="fill:#2424b7;fill-opacity:1;stroke-width:0.265;stroke-dasharray:none"
       d="m 10.738388,168.07624 h 10 v 3 l 4,-4 -4,-4 v 3 H 8.7383883 v 6 h 1.9999997 z m 10,10 h -10 v -3 l -3.9999997,4 3.9999997,4 v -3 h 12 v -6 h -2 z" /><path
       id="rect111-6-7-5-3-5-6-2-9-1-2-7-3-6-7-5-3-5-6-2"
       style="fill:#2424b7;fill-opacity:1;stroke-width:0.265;stroke-dasharray:none"
       d="m 45.078937,166.98957 h -2 v 14 c 0,1.1 0.9,2 2,2 h 14 v -2 h -14 z m 16,-4 h -12 c -1.1,0 -2,0.9 -2,2 v 12 c 0,1.1 0.9,2 2,2 h 12 c 1.1,0 2,-0.9 2,-2 v -12 c 0,-1.1 -0.9,-2 -2,-2 z m -1,9 h -4 v 4 h -2 v -4 h -4 v -2 h 4 v -4 h 2 v 4 h 4 z" /><path
       id="rect111-6-7-5-3-5-6-2-9-1-2-7-3-6-7-5-3-5-6-2-9"
       style="fill:#2424b7;fill-opacity:1;stroke-width:0.265;stroke-dasharray:none"
       d="m 94.977313,169.85118 -7.19,-0.62 -2.81,-6.62 -2.81,6.63 -7.19,0.61 5.46,4.73 -1.64,7.03 6.18,-3.73 6.18,3.73 -1.63,-7.03 z m -10,6.16 -3.76,2.27 1,-4.28 -3.32,-2.88 4.38,-0.38 1.7,-4.03 1.71,4.04 4.38,0.38 -3.32,2.88 1,4.28 z" /><path
       id="rect111-6-7-5-3-5-6-2-9-1-2-7-3-6-7-5-3-5-6-2-9-1"
       style="fill:#2424b7;fill-opacity:1;stroke-width:0.265;stroke-dasharray:none"
       d="m 120.14435,163.0193 c -1.74,0 -3.41,0.81 -4.5,2.09 -1.09,-1.28 -2.76,-2.09 -4.5,-2.09 -3.08,0 -5.5,2.42 -5.5,5.5 0,3.78 3.4,6.86 8.55,11.54 l 1.45,1.31 1.45,-1.32 c 5.15,-4.67 8.55,-7.75 8.55,-11.53 0,-3.08 -2.42,-5.5 -5.5,-5.5 z m -4.4,15.55 -0.1,0.1 -0.1,-0.1 c -4.76,-4.31 -7.9,-7.16 -7.9,-10.05 0,-2 1.5,-3.5 3.5,-3.5 1.54,0 3.04,0.99 3.57,2.36 h 1.87 c 0.52,-1.37 2.02,-2.36 3.56,-2.36 2,0 3.5,1.5 3.5,3.5 0,2.89 -3.14,5.74 -7.9,10.05 z" /><path
       id="rect111-6-7-5-3-5-6-2-9-1-2-7-3-6-7-5-3-5-6-2-9-1-2"
       style="fill:#2424b7;fill-opacity:1;stroke-width:0.265;stroke-dasharray:none"
       d="m 143.2568,169.9133 -5.18,-5.17 -1.41,1.41 5.17,5.17 z m 3.91,-5.17 2.04,2.04 -12.54,12.55 1.41,1.41 12.55,-12.54 2.04,2.04 v -5.5 z m 0.33,9.41 -1.41,1.41 3.13,3.13 -2.05,2.05 h 5.5 v -5.5 l -2.04,2.04 z" /><path
       id="rect111-6-7-5-3-5-6-2-9-1-2-7-3-6-7-5-3-5-6-2-9-1-2-7"
       style="fill:#2424b7;fill-opacity:1;stroke-width:0.265;stroke-dasharray:none"
       d="m 179.54468,163.6343 c -5.52,0 -10,4.48 -10,10 0,5.52 4.48,10 10,10 5.52,0 10,-4.48 10,-10 0,-5.52 -4.48,-10 -10,-10 z m 0,18 c -4.41,0 -8,-3.59 -8,-8 0,-4.41 3.59,-8 8,-8 4.41,0 8,3.59 8,8 0,4.41 -3.59,8 -8,8 z m 0,-12.5 c -2.49,0 -4.5,2.01 -4.5,4.5 0,2.49 2.01,4.5 4.5,4.5 2.49,0 4.5,-2.01 4.5,-4.5 0,-2.49 -2.01,-4.5 -4.5,-4.5 z m 0,5.5 c -0.55,0 -1,-0.45 -1,-1 0,-0.55 0.45,-1 1,-1 0.55,0 1,0.45 1,1 0,0.55 -0.45,1 -1,1 z" /><path
       id="rect111-6-7-5-3-5-6-2-9-1-2-7-3-6-7-5-3-5-6-2-9-1-2-7-0"
       style="fill:#2424b7;fill-opacity:1;stroke-width:0.265;stroke-dasharray:none"
       d="m 19.704686,208.31069 c -1.45,-1.45 -3.44,-2.35 -5.65,-2.35 -4.4199993,0 -7.9899993,3.58 -7.9899993,8 0,4.42 3.57,8 7.9899993,8 3.73,0 6.84,-2.55 7.73,-6 h -2.08 c -0.82,2.33 -3.04,4 -5.65,4 -3.309999,0 -5.9999993,-2.69 -5.9999993,-6 0,-3.31 2.6900003,-6 5.9999993,-6 1.66,0 3.14,0.69 4.22,1.78 l -3.22,3.22 h 7 v -7 z" /><path
       id="rect111-6-7-5-3-5-6-2-9-1-2-7-3-6-7-5-3-5-6-2-9-1-2-7-0-9"
       style="fill:#2424b7;fill-opacity:1;stroke-width:0.265;stroke-dasharray:none"
       d="m 41.213578,219.14791 h 18 v -2 h -18 z m 0,-5 h 18 v -2 h -18 z m 0,-7 v 2 h 18 v -2 z" /><path
       id="rect111-6-7-5-3-5-6-2-9-1-2-7-0"
       style="fill:#2424b7;fill-opacity:1;stroke-width:0.265;stroke-dasharray:none"
       d="m 23.5722,90.112735 a 0.75,0.75 0 0 0 -1.061,0 l -1.47,1.47 -1.47,-1.47 a 0.75,0.75 0 0 0 -1.059,1.06 l 1.469,1.47 -1.47,1.47 a 0.75,0.75 0 1 0 1.06,1.06 l 1.47,-1.47 1.47,1.47 a 0.75,0.75 0 0 0 1.06,-1.06 l -1.469,-1.47 1.47,-1.47 a 0.75,0.75 0 0 0 0,-1.06" /><path
       id="rect111-3"
       style="fill:#2424b7;fill-opacity:1;stroke-width:0.265;stroke-dasharray:none"
       d="m 30.08522,6.6906891 a 1,1 0 0 1 1,-1 h 14 a 1,1 0 0 1 1,1 v 3.9999999 h -16 z m -2.487,7.3699999 a 1,1 0 0 1 0.778,-0.37 h 19.419 a 1,1 0 0 1 0.978,1.208 l -2.17,10.208 a 2,2 0 0 1 -1.956,1.584 h -13.124 a 2,2 0 0 1 -1.956,-1.584 l -2.17,-10.208 a 1,1 0 0 1 0.201,-0.837 z m 10.487,8.464 c 1.933,0 3.5,-1.044 3.5,-2.333 0,-1.289 -1.567,-2.333 -3.5,-2.333 -1.933,0 -3.5,1.042 -3.5,2.332 0,1.29 1.567,2.333 3.5,2.333 z" /><path
       id="rect111-3-6"
       style="fill:#2424b7;fill-opacity:1;stroke-width:0.265;stroke-dasharray:none"
       d="m 173.29918,53.261447 a 1,1 0 0 1 0.778,-0.37 h 19.418 a 1,1 0 0 1 0.979,1.208 l -2.339,11 a 1,1 0 0 1 -0.978,0.792 h -14.741 a 1,1 0 0 1 -0.978,-0.792 l -2.339,-11 a 1,1 0 0 1 0.201,-0.837 z m 2.012,1.63 1.913,9 h 13.123 l 1.913,-9 z m 0.475,-9 a 1,1 0 0 1 1,-1 h 14 a 1,1 0 0 1 1,1 v 4 h -2 v -3 h -12 v 3 h -2 z" /></g></svg>
