<svg xmlns="http://www.w3.org/2000/svg" height="20px" viewBox="0 -960 960 960" width="20px" fill="#e3e3e3"><path d="M480-431ZM240-144q-40 0-68-28t-28-68v-249q0-20 7.46-37.67Q158.91-544.34 173-558l240-231q14-14 31.55-20.5 17.56-6.5 35.5-6.5 17.95 0 35.34 6.56Q532.77-802.89 547-789l240 231q14.09 13.66 21.54 31.33Q816-509 816-489v249q0 40-28 68t-68 28H240Zm0-72h480q10.2 0 17.1-6.9 6.9-6.9 6.9-17.1v-249q0-5.09-1.5-9.55Q741-503 737-506L587-651l-55 53 140 137v173H288v-173l247-240-38-36q-4.85-4.67-9.39-5.83-4.55-1.17-7.58-1.17-3.03 0-7.6 1.17-4.56 1.16-9.43 5.83L223-506q-3 3-5 7.45-2 4.46-2 9.55v249q0 10.2 6.9 17.1 6.9 6.9 17.1 6.9Zm120-144h240v-71L480-548 360-431v71Z"/></svg>